{
    "asset" : {
        "generator" : "Khronos glTF Blender I/O v3.2.40",
        "version" : "2.0"
    },
    "scene" : 0,
    "scenes" : [
        {
            "name" : "Scene",
            "nodes" : [
                0
            ]
        }
    ],
    "nodes" : [
        {
            "mesh" : 0,
            "name" : "october-painting2"
        }
    ],
    "materials" : [
        {
            "doubleSided" : true,
            "name" : "beige",
            "pbrMetallicRoughness" : {}
        },
        {
            "doubleSided" : true,
            "name" : "picture04",
            "pbrMetallicRoughness" : {}
        }
    ],
    "meshes" : [
        {
            "name" : "october-painting2",
            "primitives" : [
                {
                    "attributes" : {
                        "POSITION" : 0,
                        "NORMAL" : 1,
                        "TEXCOORD_0" : 2
                    },
                    "indices" : 3,
                    "material" : 0
                },
                {
                    "attributes" : {
                        "POSITION" : 4,
                        "NORMAL" : 5,
                        "TEXCOORD_0" : 6
                    },
                    "indices" : 7,
                    "material" : 1
                }
            ]
        }
    ],
    "accessors" : [
        {
            "bufferView" : 0,
            "componentType" : 5126,
            "count" : 44,
            "max" : [
                0.20159989595413208,
                0.19938263297080994,
                0.009569325484335423
            ],
            "min" : [
                -0.20160001516342163,
                -0.20381729304790497,
                -0.00043082263437099755
            ],
            "type" : "VEC3"
        },
        {
            "bufferView" : 1,
            "componentType" : 5126,
            "count" : 44,
            "type" : "VEC3"
        },
        {
            "bufferView" : 2,
            "componentType" : 5126,
            "count" : 44,
            "type" : "VEC2"
        },
        {
            "bufferView" : 3,
            "componentType" : 5123,
            "count" : 78,
            "type" : "SCALAR"
        },
        {
            "bufferView" : 4,
            "componentType" : 5126,
            "count" : 4,
            "max" : [
                0.18999992311000824,
                0.18778261542320251,
                0.006541065406054258
            ],
            "min" : [
                -0.1899999976158142,
                -0.19221730530261993,
                0.006540913600474596
            ],
            "type" : "VEC3"
        },
        {
            "bufferView" : 5,
            "componentType" : 5126,
            "count" : 4,
            "type" : "VEC3"
        },
        {
            "bufferView" : 6,
            "componentType" : 5126,
            "count" : 4,
            "type" : "VEC2"
        },
        {
            "bufferView" : 7,
            "componentType" : 5123,
            "count" : 6,
            "type" : "SCALAR"
        }
    ],
    "bufferViews" : [
        {
            "buffer" : 0,
            "byteLength" : 528,
            "byteOffset" : 0
        },
        {
            "buffer" : 0,
            "byteLength" : 528,
            "byteOffset" : 528
        },
        {
            "buffer" : 0,
            "byteLength" : 352,
            "byteOffset" : 1056
        },
        {
            "buffer" : 0,
            "byteLength" : 156,
            "byteOffset" : 1408
        },
        {
            "buffer" : 0,
            "byteLength" : 48,
            "byteOffset" : 1564
        },
        {
            "buffer" : 0,
            "byteLength" : 48,
            "byteOffset" : 1612
        },
        {
            "buffer" : 0,
            "byteLength" : 32,
            "byteOffset" : 1660
        },
        {
            "buffer" : 0,
            "byteLength" : 12,
            "byteOffset" : 1692
        }
    ],
    "buffers" : [
        {
            "byteLength" : 1704,
            "uri" : "october-painting2.bin"
        }
    ]
}
